<?xml version="1.0" standalone="no"?><!DOCTYPE svg PUBLIC "-//W3C//DTD SVG 1.1//EN" "http://www.w3.org/Graphics/SVG/1.1/DTD/svg11.dtd"><svg t="1622734698578" class="icon" viewBox="0 0 1024 1024" version="1.1" xmlns="http://www.w3.org/2000/svg" p-id="13092" xmlns:xlink="http://www.w3.org/1999/xlink" width="200" height="200"><defs><style type="text/css"></style></defs><path d="M570.24 280.416l0.032 0.384a63.488 63.488 0 0 0 6.016 18.624v0.096l0.256 0.416a62.688 62.688 0 0 0 4.384 7.616 57.952 57.952 0 0 0 7.232 8.928 62.88 62.88 0 0 0 34.4 17.536 57.088 57.088 0 0 0 25.856-0.96 63.04 63.04 0 0 0 30.304-16.576 54.016 54.016 0 0 0 5.76-6.72c0.704-0.896 1.184-1.92 1.824-2.848l1.024-1.632a56.32 56.32 0 0 0 4.192-8c0.672-1.44 1.28-2.912 1.824-4.416 0.128-0.352 0.32-0.672 0.416-1.024 0.128-0.416 0.128-0.832 0.256-1.248a63.584 63.584 0 0 0 2.752-13.344c0.128-1.44 0.352-2.88 0.416-4.32a64.064 64.064 0 0 0-1.12-14.528c-0.32-1.6-0.96-3.072-1.376-4.608a62.88 62.88 0 0 0-3.84-10.304c-0.8-1.632-1.6-3.2-2.56-4.8a63.616 63.616 0 0 0-9.28-12.384l-0.288-0.384-0.064-0.032-0.032-0.064a63.264 63.264 0 0 0-15.36-11.008c-0.96-0.512-1.856-1.024-2.784-1.472a63.648 63.648 0 0 0-24.448-6.016c-0.928-0.064-1.792-0.288-2.752-0.288a62.336 62.336 0 0 0-56.256 34.272l-1.12 2.144a63.648 63.648 0 0 0-5.568 17.408l-0.096 0.96a64.128 64.128 0 0 0 0 18.56z m63.04 22.624a32.32 32.32 0 0 1-3.936-0.768 31.008 31.008 0 0 1-11.488-3.808 28.192 28.192 0 0 1-6.976-4.704 32.256 32.256 0 0 1 0-45.44 32 32 0 0 1 45.12 45.376 31.328 31.328 0 0 1-15.584 8 32.352 32.352 0 0 1-7.136 1.344z" p-id="13093"></path><path d="M965.76 367.04l-45.76-260.8a44.896 44.896 0 0 0-54.72-35.84l-2.88 0.96-10.24 3.2a44.64 44.64 0 0 0-40.576-26.464 46.4 46.4 0 0 0-3.04 0.096l-264.128 17.6a64.512 64.512 0 0 0-41.344 18.752L67.84 519.808a64.224 64.224 0 0 0 0 90.816l226.112 226.112a63.04 63.04 0 0 0 73.44 11.904l182.368 110.72a64.32 64.32 0 0 0 48.64 7.68 65.088 65.088 0 0 0 39.36-29.12l319.68-526.4a65.6 65.6 0 0 0 8.32-44.48zM548.672 129.664l242.24-16.16-13.472 200.416-0.8 11.2-0.128 2.496-1.92 28.48-322.208 322.208L226.24 452.16l-0.096-0.096zM113.088 565.056l67.744-67.712 226.176 226.208-46.048 46.048 0.096 0.064-21.856 21.824z m267.328 274.976c-1.472 1.28-2.912 2.624-4.48 3.68 1.568-1.088 3.008-2.4 4.48-3.68z m202.624 64.608l-165.696-100.768 69.76-69.76 145.856 88.608z m83.2-136.64h-0.32l-132.096-80.608 286.048-286.048a64.544 64.544 0 0 0 18.752-41.312l17.6-264.128c0.064-1.088-0.128-2.112-0.128-3.168 0 1.12 0.256 2.144 0.224 3.264l-2.88 45.12 7.36-2.24 41.92 239.36z m188.864-684.544c0.16 0.64 0.384 1.248 0.48 1.92-0.096-0.64-0.32-1.28-0.48-1.92z" p-id="13094"></path></svg>