<?xml version="1.0" standalone="no"?><!DOCTYPE svg PUBLIC "-//W3C//DTD SVG 1.1//EN" "http://www.w3.org/Graphics/SVG/1.1/DTD/svg11.dtd"><svg t="1622734691695" class="icon" viewBox="0 0 1024 1024" version="1.1" xmlns="http://www.w3.org/2000/svg" p-id="12949" xmlns:xlink="http://www.w3.org/1999/xlink" width="200" height="200"><defs><style type="text/css"></style></defs><path d="M916.8896 95.4368H703.6928V52.8384c0-23.552-19.0464-42.5984-42.5984-42.5984s-42.5984 19.0464-42.5984 42.5984v42.5984H405.0944V52.8384c0-23.552-19.0464-42.5984-42.5984-42.5984s-42.5984 19.2512-42.5984 42.5984v42.5984H106.7008A106.9056 106.9056 0 0 0 0 202.1376v703.6928a106.9056 106.9056 0 0 0 106.7008 106.7008h810.3936a106.9056 106.9056 0 0 0 106.7008-106.7008V202.1376c-0.2048-58.7776-48.128-106.7008-106.9056-106.7008zM106.7008 180.6336h213.1968v42.5984c0 23.552 19.0464 42.5984 42.5984 42.5984s42.5984-19.0464 42.5984-42.5984V180.6336h213.1968v42.5984c0 23.552 19.0464 42.5984 42.5984 42.5984s42.5984-19.2512 42.5984-42.5984V180.6336h213.1968c11.8784 0 21.2992 9.6256 21.2992 21.2992v128H85.1968V201.9328c0-11.6736 9.6256-21.2992 21.504-21.2992z m810.1888 746.496H106.7008c-11.8784 0-21.2992-9.6256-21.2992-21.2992V415.3344h852.992v490.496c0 11.6736-9.6256 21.2992-21.504 21.2992z m0 0" p-id="12950"></path><path d="M587.5712 776.192c-42.5984 0-73.3184-30.5152-105.472-62.464-30.5152-30.3104-68.608-67.9936-129.8432-99.5328-29.9008-15.36-56.7296-18.0224-81.92-7.9872-52.224 20.6848-87.2448 91.5456-96.4608 117.1456-5.7344 15.9744-23.3472 24.3712-39.3216 18.6368a30.80192 30.80192 0 0 1-18.6368-39.3216c1.6384-4.9152 43.2128-118.784 131.6864-153.8048 42.1888-16.5888 86.8352-13.1072 132.7104 10.6496 69.632 35.84 113.2544 79.0528 144.9984 110.592 47.7184 47.3088 57.1392 49.7664 80.0768 40.5504 17.2032-6.9632 34.4064-17.6128 50.9952-28.0576 44.4416-27.8528 99.9424-62.2592 168.3456-22.3232 31.1296 18.0224 52.4288 31.5392 66.9696 41.1648 15.7696 10.24 18.432 32.1536 5.9392 46.08a30.72 30.72 0 0 1-39.936 5.12c-13.312-8.8064-33.5872-21.504-64.1024-39.3216-34.816-20.2752-60.0064-6.5536-104.8576 21.504-18.8416 11.6736-38.0928 23.7568-60.2112 32.768-14.9504 5.9392-28.4672 8.6016-40.96 8.6016z" p-id="12951"></path></svg>